<svg xmlns="http://www.w3.org/2000/svg" xmlns:xlink="http://www.w3.org/1999/xlink" width="170" zoomAndPan="magnify" viewBox="0 0 127.5 74.999997" height="100" preserveAspectRatio="xMidYMid meet" version="1.0"><defs><clipPath id="69e06489c5"><path d="M 0 0.144531 L 127 0.144531 L 127 74.851562 L 0 74.851562 Z M 0 0.144531 " clip-rule="nonzero"/></clipPath><clipPath id="8650175207"><path d="M 0 0.144531 L 127 0.144531 L 127 74.851562 L 0 74.851562 Z M 0 0.144531 " clip-rule="nonzero"/></clipPath><clipPath id="8c5e4b0063"><path d="M 16.121094 86.054688 L -0.210938 50.808594 L 116.375 -3.214844 L 132.707031 32.03125 Z M 16.121094 86.054688 " clip-rule="nonzero"/></clipPath><clipPath id="f52b55f413"><path d="M 111 11 L 113 11 L 113 13 L 111 13 Z M 111 11 " clip-rule="nonzero"/></clipPath><clipPath id="ef8e21d6ad"><path d="M 16.121094 86.054688 L -0.210938 50.808594 L 116.375 -3.214844 L 132.707031 32.03125 Z M 16.121094 86.054688 " clip-rule="nonzero"/></clipPath><clipPath id="b372544874"><path d="M -0.300781 50.617188 L 16.035156 85.867188 L 132.621094 31.839844 L 116.285156 -3.40625 Z M -0.300781 50.617188 " clip-rule="nonzero"/></clipPath><clipPath id="2f32527dcc"><path d="M 109 12 L 112 12 L 112 16 L 109 16 Z M 109 12 " clip-rule="nonzero"/></clipPath><clipPath id="59d82bc524"><path d="M 16.121094 86.054688 L -0.210938 50.808594 L 116.375 -3.214844 L 132.707031 32.03125 Z M 16.121094 86.054688 " clip-rule="nonzero"/></clipPath><clipPath id="d00b27bd09"><path d="M -0.300781 50.617188 L 16.035156 85.867188 L 132.621094 31.839844 L 116.285156 -3.40625 Z M -0.300781 50.617188 " clip-rule="nonzero"/></clipPath><clipPath id="a20d47aa17"><path d="M 3 1 L 119 1 L 119 74.851562 L 3 74.851562 Z M 3 1 " clip-rule="nonzero"/></clipPath><clipPath id="5aab79c641"><path d="M 16.121094 86.054688 L -0.210938 50.808594 L 116.375 -3.214844 L 132.707031 32.03125 Z M 16.121094 86.054688 " clip-rule="nonzero"/></clipPath><clipPath id="cd8de168f1"><path d="M -0.300781 50.617188 L 16.035156 85.867188 L 132.621094 31.839844 L 116.285156 -3.40625 Z M -0.300781 50.617188 " clip-rule="nonzero"/></clipPath><clipPath id="7d095e7c34"><rect x="0" width="127" y="0" height="75"/></clipPath></defs><g clip-path="url(#69e06489c5)"><path fill="none" d="M 0 0.144531 L 127 0.144531 L 127 74.851562 L 0 74.851562 Z M 0 0.144531 " fill-opacity="0" fill-rule="nonzero"/><path fill="none" d="M 0 0.144531 L 127 0.144531 L 127 74.851562 L 0 74.851562 Z M 0 0.144531 " fill-opacity="0" fill-rule="nonzero"/></g><g clip-path="url(#8650175207)"><g clip-path="url(#8c5e4b0063)"><g transform="matrix(1, 0, 0, 1, 0, 0.000000000000004857)"><g clip-path="url(#7d095e7c34)"><g clip-path="url(#f52b55f413)"><g clip-path="url(#ef8e21d6ad)"><g clip-path="url(#b372544874)"><path fill="#167544" d="M 112.167969 11.878906 C 112.195312 11.847656 112.335938 10.960938 112.007812 11.003906 C 111.757812 11.328125 111.589844 12.003906 111.382812 12.242188 C 111.457031 12.097656 112.027344 12.046875 112.171875 11.875 Z M 112.167969 11.878906 " fill-opacity="1" fill-rule="nonzero"/></g></g></g><g clip-path="url(#2f32527dcc)"><g clip-path="url(#59d82bc524)"><g clip-path="url(#d00b27bd09)"><path fill="#167544" d="M 110.140625 14.726562 C 110.324219 14.492188 110.589844 14.191406 110.746094 13.964844 C 110.953125 13.671875 111.222656 13.402344 111.351562 13.207031 C 111.449219 13.050781 111.28125 12.429688 111.378906 12.234375 C 110.921875 12.753906 110.347656 13.144531 109.839844 13.800781 C 109.472656 14.285156 109.429688 14.996094 109.359375 15.082031 C 109.492188 14.917969 110.015625 14.882812 110.148438 14.714844 Z M 110.140625 14.726562 " fill-opacity="1" fill-rule="nonzero"/></g></g></g><g clip-path="url(#a20d47aa17)"><g clip-path="url(#5aab79c641)"><g clip-path="url(#cd8de168f1)"><path fill="#167544" d="M 109.355469 15.089844 C 89.414062 40.242188 51.925781 53.308594 20.839844 56.722656 C 18.886719 56.9375 16.488281 57.191406 14.59375 56.851562 C 19.191406 53.964844 23.71875 50.886719 27.871094 47.367188 C 31.226562 44.519531 36.816406 39.558594 39.59375 36.328125 C 41.066406 34.613281 41.039062 34.078125 39.851562 32.011719 C 38.910156 32.46875 37.890625 32.796875 37.035156 33.429688 C 31.429688 37.554688 26.28125 44.292969 20.011719 48.722656 C 15.027344 52.242188 11.378906 53.3125 6.183594 55.695312 C 3.363281 56.988281 2.714844 59.300781 5.554688 61.046875 C 13.324219 63.613281 20.742188 67.167969 28.347656 70.066406 C 32.519531 71.660156 36.871094 73.375 41.144531 74.417969 L 42.023438 73.765625 C 42.332031 72.867188 42.207031 71.886719 41.722656 71.066406 C 40.644531 69.265625 32.222656 67.269531 29.730469 66.328125 C 29.050781 66.070312 28.507812 65.542969 27.828125 65.285156 C 26.941406 64.949219 17.773438 61.863281 18.0625 61.226562 C 29.871094 59.582031 41.753906 57.421875 53.195312 53.949219 C 74.902344 47.363281 99.53125 34.636719 112.265625 15.683594 C 115.074219 11.5 117.429688 6.933594 118.566406 1.992188 C 118.367188 1.617188 117.847656 1.542969 117.503906 2.25 C 116.394531 4.519531 115.03125 8.398438 113.429688 10.164062 C 112.871094 10.777344 112.773438 10.816406 112.171875 11.878906 C 111.84375 12.464844 111.761719 12.617188 111.359375 13.214844 C 111.152344 13.519531 110.949219 13.71875 110.753906 13.972656 C 110.558594 14.230469 110.34375 14.476562 110.148438 14.734375 C 109.921875 15.027344 109.777344 15.628906 109.523438 15.96875 C 109.1875 16.015625 109.339844 15.132812 109.367188 15.097656 Z M 98.03125 27.742188 L 98.425781 27.558594 C 98.410156 27.875 98.28125 27.933594 98.03125 27.742188 Z M 101.503906 24.9375 L 100.71875 25.300781 L 100.539062 24.917969 L 101.324219 24.554688 Z M 103.320312 22.671875 C 103.582031 22.734375 103.113281 24.03125 102.503906 23.996094 C 102.238281 23.933594 102.707031 22.632812 103.320312 22.671875 Z M 104.617188 21.34375 L 105.011719 21.164062 C 104.996094 21.476562 104.863281 21.539062 104.617188 21.34375 Z M 106.695312 19.664062 L 105.914062 20.023438 L 105.734375 19.640625 L 106.519531 19.277344 Z M 107.421875 18.136719 L 107.816406 17.953125 C 107.800781 18.265625 107.667969 18.328125 107.421875 18.136719 Z M 108.628906 16.625 L 109.023438 16.441406 C 109.007812 16.753906 108.878906 16.816406 108.628906 16.625 Z M 108.628906 16.625 " fill-opacity="1" fill-rule="nonzero"/></g></g></g></g></g></g></g></svg>